<svg viewBox="0 0 1080 1080" fill="none" xmlns="http://www.w3.org/2000/svg">      <defs>  <filter id="filter" x="-20%" y="-20%" width="140%" height="140%" filterUnits="objectBoundingBox" primitiveUnits="userSpaceOnUse" color-interpolation-filters="linearRGB">    <feMorphology operator="dilate" radius="20 20" in="SourceAlpha" result="morphology"/>    <feFlood flood-color="#ffffff" flood-opacity="1" result="flood"/>    <feComposite in="flood" in2="morphology" operator="in" result="composite"/>    <feMerge result="merge">          <feMergeNode in="composite" result="mergeNode"/>      <feMergeNode in="SourceGraphic" result="mergeNode1"/>      </feMerge>  </filter></defs>      <g id="notion-avatar" filter="url(#filter)">        <g id="notion-avatar-face" fill="#ffffff">      <!--?xml version="1.0" encoding="UTF-8"?-->    <title>Face/ 6</title>    <g id="Face/-6" stroke="none" stroke-width="1" fill-rule="evenodd" stroke-linecap="round" stroke-linejoin="round">        <path d="M532,379 C664.54834,379 772,486.45166 772,619 C772,751.54834 764.54834,899 532,899 C402.610491,899 332.317998,816.086314 305.249034,718.717925 C264.225797,715.291578 232,680.909158 232,639 C232,599.134956 261.158843,566.080325 299.312086,560.00055 C325.599297,455.979213 419.809919,379 532,379 Z M295.858895,624.545187 L304.141105,655.454813" id="Path" stroke="#000000" stroke-width="24"/>    </g>    </g><g id="notion-avatar-nose">      <!--?xml version="1.0" encoding="UTF-8"?-->    <title>Nose/ 6</title>    <g id="Nose/-6" stroke="none" stroke-width="1" fill="none" fill-rule="evenodd" stroke-linecap="round" stroke-linejoin="round">        <path d="M673,568 C662.55102,590.836147 657.326531,613.414126 657.326531,635.733939 C657.326531,669.213657 685.938776,657.439501 683,683 C681.040816,700.040333 661.707483,708.388498 625,708.044495" id="Path" stroke="#000000" stroke-width="16"/>    </g>    </g><g id="notion-avatar-mouth">      <!--?xml version="1.0" encoding="UTF-8"?-->    <title>Mouth/ 7</title>    <g id="Mouth/-7" stroke="none" stroke-width="1" fill="none" fill-rule="evenodd" stroke-linecap="round" stroke-linejoin="round">        <path d="M559.810774,753.60177 C566.691716,738.132743 579.421458,738.132743 598,753.60177 L598.555602,753.14234 C616.832552,738.13429 629.377094,738.287434 636.189226,753.60177 C643.001358,768.916106 630.593059,783.900851 598.96433,798.556005 L598,799 C565.659574,784.20354 552.929833,769.070796 559.810774,753.60177 Z" id="Path" stroke="#000000" stroke-width="16" fill="#000000"/>    </g>    </g><g id="notion-avatar-eyes">      <!--?xml version="1.0" encoding="UTF-8"?-->    <title>Eyes/ 5</title>    <g id="Eyes/-5" stroke="none" stroke-width="1" fill="none" fill-rule="evenodd">        <g id="Group" transform="translate(538.000000, 507.000000)">            <g transform="translate(138.000000, 0.000000)">                <circle id="Oval" stroke="#000000" stroke-width="12" stroke-linecap="round" stroke-linejoin="round" cx="32" cy="32" r="32"/>                <path d="M4,18 C13.3333333,20.6666667 22.6666667,22 32,22 C41.3333333,22 50.6666667,20.6666667 60,18" id="Path" stroke="#000000" stroke-width="12" stroke-linecap="round" stroke-linejoin="round"/>                <circle id="Oval" fill="#000000" cx="32" cy="28" r="10"/>            </g>            <g transform="translate(0.000000, 1.000000)">                <circle id="Oval" stroke="#000000" stroke-width="12" stroke-linecap="round" stroke-linejoin="round" cx="32" cy="32" r="32"/>                <path d="M4,18 C13.3333333,20.6666667 22.6666667,22 32,22 C41.3333333,22 50.6666667,20.6666667 60,18" id="Path" stroke="#000000" stroke-width="12" stroke-linecap="round" stroke-linejoin="round"/>                <circle id="Oval" fill="#000000" cx="32" cy="28" r="10"/>            </g>        </g>    </g>    </g><g id="notion-avatar-eyebrows">      <!--?xml version="1.0" encoding="UTF-8"?-->    <title>Eyebrows/ 6</title>    <g id="Eyebrows/-6" stroke="none" stroke-width="1" fill="none" fill-rule="evenodd" stroke-linecap="round" stroke-linejoin="round">        <path d="M620,495.140162 C589.850248,491.823271 565.234864,491.823271 546.153846,495.140162 C527.072829,498.457053 511.688213,505.410333 500,516 C517.257672,497.488903 532.642287,487.058984 546.153846,484.710243 C559.665405,482.361502 584.280789,485.838142 620,495.140162 Z M658,495.140162 C693.719211,485.838142 718.334595,482.361502 731.846154,484.710243 C745.357713,487.058984 760.742328,497.488903 778,516 C766.311787,505.410333 750.927171,498.457053 731.846154,495.140162 C712.765136,491.823271 688.149752,491.823271 658,495.140162 Z" id="Combined-Shape" stroke="#000000" stroke-width="8" fill="#000000"/>    </g>    </g><g id="notion-avatar-glasses">      <g id="Glasses/ 13"><g id="Group"><path id="Path" d="M594.966 482.529H684.378" stroke="black" stroke-width="8" stroke-linecap="round" stroke-linejoin="round"/><path id="Path_2" d="M593 517.765C593 517.765 615.694 501 638 501C660.306 501 682.412 517.765 682.412 517.765" stroke="black" stroke-width="8" stroke-linecap="round" stroke-linejoin="round"/><path id="Path_3" d="M510.484 517.569L293.827 555.771" stroke="black" stroke-width="16" stroke-linecap="round" stroke-linejoin="round"/><g id="Rectangle"><path id="Mask" fill-rule="evenodd" clip-rule="evenodd" d="M470.242 498.62C502.983 452.135 598.089 462.262 619.362 504.282C640.636 546.302 563.647 605 516.916 605C470.186 605 437.501 545.106 470.242 498.62Z" fill="#0C0C0C"/><mask id="mask0_0_1173" style="mask-type:alpha" maskUnits="userSpaceOnUse" x="457" y="468" width="166" height="137"><path id="Mask_2" fill-rule="evenodd" clip-rule="evenodd" d="M470.242 498.62C502.983 452.135 598.089 462.262 619.362 504.282C640.636 546.302 563.647 605 516.916 605C470.186 605 437.501 545.106 470.242 498.62Z" fill="white"/></mask><g mask="url(#mask0_0_1173)"><rect id="Rectangle_2" x="549.624" y="439.067" width="210" height="28" transform="rotate(60 549.624 439.067)" fill="white"/></g></g><g id="Rectangle_3"><path id="Mask_3" fill-rule="evenodd" clip-rule="evenodd" d="M804.758 498.62C772.017 452.135 676.911 462.262 655.638 504.282C634.364 546.302 711.353 605 758.084 605C804.814 605 837.499 545.106 804.758 498.62Z" fill="#0C0C0C"/><mask id="mask1_0_1173" style="mask-type:alpha" maskUnits="userSpaceOnUse" x="652" y="468" width="166" height="137"><path id="Mask_4" fill-rule="evenodd" clip-rule="evenodd" d="M804.758 498.62C772.017 452.135 676.911 462.262 655.638 504.282C634.364 546.302 711.353 605 758.084 605C804.814 605 837.499 545.106 804.758 498.62Z" fill="white"/></mask><g mask="url(#mask1_0_1173)"><rect id="Rectangle_4" x="739.624" y="439.067" width="210" height="28" transform="rotate(60 739.624 439.067)" fill="white"/></g></g><path id="Path_4" fill-rule="evenodd" clip-rule="evenodd" d="M470.242 498.62C502.983 452.135 598.089 462.262 619.362 504.282C640.636 546.302 563.647 605 516.916 605C470.186 605 437.501 545.106 470.242 498.62Z" stroke="black" stroke-width="8" stroke-linecap="round" stroke-linejoin="round"/><path id="Path_5" fill-rule="evenodd" clip-rule="evenodd" d="M804.758 498.62C772.017 452.135 676.911 462.262 655.638 504.282C634.364 546.302 711.353 605 758.084 605C804.814 605 837.499 545.106 804.758 498.62Z" stroke="black" stroke-width="8" stroke-linecap="round" stroke-linejoin="round"/></g></g>    </g><g id="notion-avatar-hair">      <!--?xml version="1.0" encoding="UTF-8"?-->    <title>Hairstyle/ 15</title>    <g id="Hairstyle/-15" stroke="none" stroke-width="1" fill="none" fill-rule="evenodd" stroke-linecap="round" stroke-linejoin="round">        <path d="M287.145773,564.824988 L328.116663,564.824988 L366,655 C370.666667,589.394941 373,550.728275 373,539 C373,521.407588 342.295767,484.522372 366,454 C377.664033,438.980996 400.953019,418.040292 417,414 C433.564497,409.829408 298,383 268,471 C248,529.666667 254.381924,560.941663 287.145773,564.824988 Z" id="Path" stroke="#000000" stroke-width="12" fill="#000000"/>    </g>    </g><g id="notion-avatar-accessories">      <!--?xml version="1.0" encoding="UTF-8"?-->    <title>Accessories/ 0</title>    <g id="Accessories/-0" stroke="none" stroke-width="1" fill="none" fill-rule="evenodd"/>    </g><g id="notion-avatar-details">      <!--?xml version="1.0" encoding="UTF-8"?-->    <title>Details/ 0</title>    <g id="Details/-0" stroke="none" stroke-width="1" fill="none" fill-rule="evenodd"/>    </g><g id="notion-avatar-beard">      <!--?xml version="1.0" encoding="UTF-8"?-->    <title>Beard/ 0</title>    <g id="Beard/-0" stroke="none" stroke-width="1" fill="none" fill-rule="evenodd"/>    </g>      </g>      </svg>